<svg width="45" height="45" viewBox="0 0 45 45" fill="none" xmlns="http://www.w3.org/2000/svg">
<path d="M33.2015 4.97296C29.7791 3.56671 25.715 3.16417 21.7564 3.82335C17.4884 4.52648 13.7883 6.37745 11.0549 9.15655C4.47712 15.8468 5.80954 29.454 8.78904 36.5415C9.99665 39.4384 12.1289 42.8907 15.3826 42.8907C19.8439 42.8907 21.8373 38.9989 23.5968 35.5642C24.7799 33.2544 26.0033 30.8638 27.856 29.6069C28.8211 28.953 30.1799 28.4292 31.6195 27.8737C35.7838 26.2689 41.4843 24.0698 41.4843 16.3776C41.4843 11.2835 38.4644 7.12628 33.2015 4.97296ZM30.1008 23.938C28.5047 24.5532 26.8523 25.1913 25.4883 26.1159C22.7408 27.9792 21.2009 30.9868 19.8404 33.6411C18.2443 36.7612 17.1738 38.672 15.3826 38.672C15.1576 38.672 13.9763 38.0023 12.6738 34.9103C10.1039 28.7843 9.12126 17.1405 14.0625 12.1132C16.1349 10.0038 19.1127 8.5378 22.4455 7.98409C23.4332 7.82128 24.4327 7.73956 25.4338 7.73976C27.543 7.7218 29.6361 8.10785 31.6002 8.87706C33.7095 9.7419 37.2621 11.8653 37.2621 16.3776C37.2656 20.9427 34.5427 22.2241 30.1008 23.938Z" fill="#67748E"/>
</svg>
